# xmcd
#
# Track frame offsets: 
#        150
#        11792
#        22432
#        36015
#        46580
#        55665
#        65987
#        76252
#        88400
#        100162
#        110602
#        120487
#        133330
#        143280
#        152305
#        163682
#        172737
#        180630
#        193190
#        202420
#
# Disc length: 2845 seconds
#
# Revision: 0
# Processed by: cddbd v1.5.1PL2 Copyright (c) Steve Scherf et al.
# Submitted via: ExactAudioCopy v0.95b4
#
DISCID=150b1b14
DTITLE=Various Artist - Red Hot Rockabilly
DYEAR=1991
DGENRE=Rockabilly
TTITLE0=Tennessee Ernie Ford - Shotgun Boogie
TTITLE1=Merrill Moore - The House of Blue Lights
TTITLE2=Merle Travis - Merle's Boogie Woogie
TTITLE3=Slim Rhodes - Gonna Rock and Stomp
TTITLE4=Johnny Cash - Luther Played the Boogie
TTITLE5=Luke McDaniel - Huh Babe
TTITLE6=Carl Perkins - Blue Suede Shoes
TTITLE7=Gene Simmons - Drinkin' Wine
TTITLE8=Gene Vincent - Be-Bop-A-Lula
TTITLE9=Malcolm Yelvington - Rockin' with My Baby
TTITLE10=Johnny Cash - Get Rhythm
TTITLE11=Carl Perkins - Honey Don't
TTITLE12=Roy Orbison - Ooby Dooby
TTITLE13=Wanda Jackson - Baby Loves Him
TTITLE14=Slim Rhodes - Do What I Do
TTITLE15=Warren Smith - Ubangi Stomp
TTITLE16=Eddie Cochran - Twenty Flight Rock
TTITLE17=Carl Perkins - Boppin' the Blues
TTITLE18=Skeets McDonald - You Oughta See Grandma Rock
TTITLE19=Sonny Burgess - We Wanna Boogie
EXTD=
EXTT0=
EXTT1=
EXTT2=
EXTT3=
EXTT4=
EXTT5=
EXTT6=
EXTT7=
EXTT8=
EXTT9=
EXTT10=
EXTT11=
EXTT12=
EXTT13=
EXTT14=
EXTT15=
EXTT16=
EXTT17=
EXTT18=
EXTT19=
PLAYORDER=
